# MagicaVoxel @ Ephtracy

# group
o 

# material
mtllib Missile.mtl
usemtl palette

# normals
vn -1 0 0
vn 1 0 0
vn 0 0 1
vn 0 0 -1
vn 0 -1 0
vn 0 1 0

# texcoords
vt 0.841797 0.5
vt 0.955078 0.5
vt 0.994141 0.5

# verts
v -0.3 0.4 0.3
v -0.3 0.4 0.2
v -0.3 0.5 0.3
v -0.3 0.5 0.2
v -0.2 0.4 0.5
v -0.2 0.4 0.4
v -0.2 0.4 0.3
v -0.2 0.4 0.2
v -0.2 0.4 -0.2
v -0.2 0.5 0.5
v -0.2 0.5 0.4
v -0.2 0.5 0.3
v -0.2 0.5 0.2
v -0.2 0.5 -0.2
v -0.1 0.3 0.5
v -0.1 0.3 0.4
v -0.1 0.3 -0.2
v -0.1 0.4 0.5
v -0.1 0.4 0.4
v -0.1 0.4 -0.2
v -0.1 0.4 -0.3
v -0.1 0.5 0.5
v -0.1 0.5 0.4
v -0.1 0.5 -0.2
v -0.1 0.5 -0.3
v -0.1 0.6 0.5
v -0.1 0.6 0.4
v -0.1 0.6 -0.2
v 0.1 0.3 0.5
v 0.1 0.3 0.4
v 0.1 0.3 -0.2
v 0.1 0.4 0.5
v 0.1 0.4 0.4
v 0.1 0.4 -0.2
v 0.1 0.4 -0.3
v 0.1 0.5 0.5
v 0.1 0.5 0.4
v 0.1 0.5 -0.2
v 0.1 0.5 -0.3
v 0.1 0.6 0.5
v 0.1 0.6 0.4
v 0.1 0.6 -0.2
v 0.2 0.4 0.5
v 0.2 0.4 0.4
v 0.2 0.4 0.3
v 0.2 0.4 0.2
v 0.2 0.4 -0.2
v 0.2 0.5 0.5
v 0.2 0.5 0.4
v 0.2 0.5 0.3
v 0.2 0.5 0.2
v 0.2 0.5 -0.2
v 0.3 0.4 0.3
v 0.3 0.4 0.2
v 0.3 0.5 0.3
v 0.3 0.5 0.2
v -0.2 0.4 0.5
v -0.2 0.5 0.5
v -0.1 0.3 0.5
v -0.1 0.4 0.5
v -0.1 0.5 0.5
v -0.1 0.6 0.5
v 0.1 0.3 0.5
v 0.1 0.4 0.5
v 0.1 0.5 0.5
v 0.1 0.6 0.5
v 0.2 0.4 0.5
v 0.2 0.5 0.5
v -0.3 0.4 0.3
v -0.3 0.5 0.3
v -0.2 0.4 0.3
v -0.2 0.5 0.3
v 0.2 0.4 0.3
v 0.2 0.5 0.3
v 0.3 0.4 0.3
v 0.3 0.5 0.3
v -0.3 0.4 0.2
v -0.3 0.5 0.2
v -0.2 0.4 0.2
v -0.2 0.5 0.2
v 0.2 0.4 0.2
v 0.2 0.5 0.2
v 0.3 0.4 0.2
v 0.3 0.5 0.2
v -0.2 0.4 -0.2
v -0.2 0.5 -0.2
v -0.1 0.3 -0.2
v -0.1 0.4 -0.2
v -0.1 0.5 -0.2
v -0.1 0.6 -0.2
v 0.1 0.3 -0.2
v 0.1 0.4 -0.2
v 0.1 0.5 -0.2
v 0.1 0.6 -0.2
v 0.2 0.4 -0.2
v 0.2 0.5 -0.2
v -0.1 0.4 -0.3
v -0.1 0.5 -0.3
v 0.1 0.4 -0.3
v 0.1 0.5 -0.3
v -0.1 0.3 0.5
v 0.1 0.3 0.5
v -0.1 0.3 0.4
v 0.1 0.3 0.4
v -0.1 0.3 -0.2
v 0.1 0.3 -0.2
v -0.2 0.4 0.5
v -0.1 0.4 0.5
v 0.1 0.4 0.5
v 0.2 0.4 0.5
v -0.2 0.4 0.4
v -0.1 0.4 0.4
v 0.1 0.4 0.4
v 0.2 0.4 0.4
v -0.3 0.4 0.3
v -0.2 0.4 0.3
v 0.2 0.4 0.3
v 0.3 0.4 0.3
v -0.3 0.4 0.2
v -0.2 0.4 0.2
v 0.2 0.4 0.2
v 0.3 0.4 0.2
v -0.2 0.4 -0.2
v -0.1 0.4 -0.2
v 0.1 0.4 -0.2
v 0.2 0.4 -0.2
v -0.1 0.4 -0.3
v 0.1 0.4 -0.3
v -0.2 0.5 0.5
v -0.1 0.5 0.5
v 0.1 0.5 0.5
v 0.2 0.5 0.5
v -0.2 0.5 0.4
v -0.1 0.5 0.4
v 0.1 0.5 0.4
v 0.2 0.5 0.4
v -0.3 0.5 0.3
v -0.2 0.5 0.3
v 0.2 0.5 0.3
v 0.3 0.5 0.3
v -0.3 0.5 0.2
v -0.2 0.5 0.2
v 0.2 0.5 0.2
v 0.3 0.5 0.2
v -0.2 0.5 -0.2
v -0.1 0.5 -0.2
v 0.1 0.5 -0.2
v 0.2 0.5 -0.2
v -0.1 0.5 -0.3
v 0.1 0.5 -0.3
v -0.1 0.6 0.5
v 0.1 0.6 0.5
v -0.1 0.6 0.4
v 0.1 0.6 0.4
v -0.1 0.6 -0.2
v 0.1 0.6 -0.2

# faces
f 3/2/1 2/2/1 1/2/1
f 4/2/1 2/2/1 3/2/1
f 10/1/1 6/1/1 5/1/1
f 11/3/1 7/3/1 6/3/1
f 11/1/1 6/1/1 10/1/1
f 12/3/1 7/3/1 11/3/1
f 13/3/1 9/3/1 8/3/1
f 14/3/1 9/3/1 13/3/1
f 18/1/1 16/1/1 15/1/1
f 19/3/1 17/3/1 16/3/1
f 19/1/1 16/1/1 18/1/1
f 20/3/1 17/3/1 19/3/1
f 24/3/1 21/3/1 20/3/1
f 25/3/1 21/3/1 24/3/1
f 26/1/1 23/1/1 22/1/1
f 27/3/1 24/3/1 23/3/1
f 27/1/1 23/1/1 26/1/1
f 28/3/1 24/3/1 27/3/1
f 29/1/2 30/1/2 32/1/2
f 30/3/2 31/3/2 33/3/2
f 32/1/2 30/1/2 33/1/2
f 33/3/2 31/3/2 34/3/2
f 34/3/2 35/3/2 38/3/2
f 38/3/2 35/3/2 39/3/2
f 36/1/2 37/1/2 40/1/2
f 37/3/2 38/3/2 41/3/2
f 40/1/2 37/1/2 41/1/2
f 41/3/2 38/3/2 42/3/2
f 43/1/2 44/1/2 48/1/2
f 44/3/2 45/3/2 49/3/2
f 48/1/2 44/1/2 49/1/2
f 49/3/2 45/3/2 50/3/2
f 46/3/2 47/3/2 51/3/2
f 51/3/2 47/3/2 52/3/2
f 53/2/2 54/2/2 55/2/2
f 55/2/2 54/2/2 56/2/2
f 60/1/3 58/1/3 57/1/3
f 61/1/3 58/1/3 60/1/3
f 63/1/3 60/1/3 59/1/3
f 63/1/3 62/1/3 61/1/3
f 63/1/3 61/1/3 60/1/3
f 64/1/3 62/1/3 63/1/3
f 65/1/3 62/1/3 64/1/3
f 66/1/3 62/1/3 65/1/3
f 67/1/3 65/1/3 64/1/3
f 68/1/3 65/1/3 67/1/3
f 71/2/3 70/2/3 69/2/3
f 72/2/3 70/2/3 71/2/3
f 75/2/3 74/2/3 73/2/3
f 76/2/3 74/2/3 75/2/3
f 77/2/4 78/2/4 79/2/4
f 79/2/4 78/2/4 80/2/4
f 81/2/4 82/2/4 83/2/4
f 83/2/4 82/2/4 84/2/4
f 85/3/4 86/3/4 88/3/4
f 88/3/4 86/3/4 89/3/4
f 87/3/4 88/3/4 91/3/4
f 91/3/4 88/3/4 92/3/4
f 89/3/4 90/3/4 93/3/4
f 93/3/4 90/3/4 94/3/4
f 92/3/4 93/3/4 95/3/4
f 95/3/4 93/3/4 96/3/4
f 97/3/4 98/3/4 99/3/4
f 99/3/4 98/3/4 100/3/4
f 103/1/5 102/1/5 101/1/5
f 104/1/5 102/1/5 103/1/5
f 105/3/5 104/3/5 103/3/5
f 106/3/5 104/3/5 105/3/5
f 111/1/5 108/1/5 107/1/5
f 112/1/5 108/1/5 111/1/5
f 113/1/5 110/1/5 109/1/5
f 114/1/5 110/1/5 113/1/5
f 116/3/5 112/3/5 111/3/5
f 117/3/5 114/3/5 113/3/5
f 119/2/5 116/2/5 115/2/5
f 120/3/5 112/3/5 116/3/5
f 120/2/5 116/2/5 119/2/5
f 121/3/5 117/3/5 113/3/5
f 121/2/5 118/2/5 117/2/5
f 122/2/5 118/2/5 121/2/5
f 123/3/5 112/3/5 120/3/5
f 124/3/5 112/3/5 123/3/5
f 125/3/5 121/3/5 113/3/5
f 126/3/5 121/3/5 125/3/5
f 127/3/5 125/3/5 124/3/5
f 128/3/5 125/3/5 127/3/5
f 129/1/6 130/1/6 133/1/6
f 133/1/6 130/1/6 134/1/6
f 131/1/6 132/1/6 135/1/6
f 135/1/6 132/1/6 136/1/6
f 133/3/6 134/3/6 138/3/6
f 135/3/6 136/3/6 139/3/6
f 137/2/6 138/2/6 141/2/6
f 138/3/6 134/3/6 142/3/6
f 141/2/6 138/2/6 142/2/6
f 135/3/6 139/3/6 143/3/6
f 139/2/6 140/2/6 143/2/6
f 143/2/6 140/2/6 144/2/6
f 142/3/6 134/3/6 145/3/6
f 145/3/6 134/3/6 146/3/6
f 135/3/6 143/3/6 147/3/6
f 147/3/6 143/3/6 148/3/6
f 146/3/6 147/3/6 149/3/6
f 149/3/6 147/3/6 150/3/6
f 151/1/6 152/1/6 153/1/6
f 153/1/6 152/1/6 154/1/6
f 153/3/6 154/3/6 155/3/6
f 155/3/6 154/3/6 156/3/6
